<mxfile host="app.diagrams.net" modified="2021-12-30T03:56:00.343Z" agent="5.0 (Macintosh; Intel Mac OS X 10_15_7) AppleWebKit/537.36 (KHTML, like Gecko) Chrome/96.0.4664.110 Safari/537.36" etag="RNEj7fWxmLxjRyXE0lSQ" version="16.1.0" type="github">
  <diagram id="wmQCY8qJL-dyslhDrxCW" name="Page-1">
    <mxGraphModel dx="1248" dy="804" grid="0" gridSize="10" guides="1" tooltips="1" connect="1" arrows="1" fold="1" page="1" pageScale="1" pageWidth="2339" pageHeight="3300" math="0" shadow="0">
      <root>
        <mxCell id="0" />
        <mxCell id="1" parent="0" />
        <mxCell id="0jPFI7pGjnbCgKfN27kb-1" value="Fiber" style="rounded=0;whiteSpace=wrap;html=1;verticalAlign=middle;fontSize=16;fontStyle=1" parent="1" vertex="1">
          <mxGeometry x="10" y="220" width="200" height="60" as="geometry" />
        </mxCell>
        <mxCell id="0jPFI7pGjnbCgKfN27kb-62" style="edgeStyle=orthogonalEdgeStyle;rounded=0;orthogonalLoop=1;jettySize=auto;html=1;exitX=1;exitY=0.5;exitDx=0;exitDy=0;entryX=0;entryY=0.5;entryDx=0;entryDy=0;fontSize=14;" parent="1" source="0jPFI7pGjnbCgKfN27kb-2" target="0jPFI7pGjnbCgKfN27kb-5" edge="1">
          <mxGeometry relative="1" as="geometry" />
        </mxCell>
        <mxCell id="0jPFI7pGjnbCgKfN27kb-2" value="memoizedState" style="rounded=0;whiteSpace=wrap;html=1;fontSize=14;" parent="1" vertex="1">
          <mxGeometry x="10" y="280" width="200" height="40" as="geometry" />
        </mxCell>
        <mxCell id="0jPFI7pGjnbCgKfN27kb-5" value="Hook" style="rounded=0;whiteSpace=wrap;html=1;verticalAlign=middle;fontSize=16;fontStyle=1" parent="1" vertex="1">
          <mxGeometry x="280" y="270" width="200" height="60" as="geometry" />
        </mxCell>
        <mxCell id="0jPFI7pGjnbCgKfN27kb-6" value="memoizedState" style="rounded=0;whiteSpace=wrap;html=1;fontSize=14;" parent="1" vertex="1">
          <mxGeometry x="280" y="330" width="200" height="40" as="geometry" />
        </mxCell>
        <mxCell id="0jPFI7pGjnbCgKfN27kb-52" value="baseState" style="rounded=0;whiteSpace=wrap;html=1;fontSize=14;" parent="1" vertex="1">
          <mxGeometry x="280" y="370" width="200" height="40" as="geometry" />
        </mxCell>
        <mxCell id="0jPFI7pGjnbCgKfN27kb-53" value="baseQueue" style="rounded=0;whiteSpace=wrap;html=1;fontSize=14;" parent="1" vertex="1">
          <mxGeometry x="280" y="410" width="200" height="40" as="geometry" />
        </mxCell>
        <mxCell id="0jPFI7pGjnbCgKfN27kb-54" value="queue" style="rounded=0;whiteSpace=wrap;html=1;fontSize=14;" parent="1" vertex="1">
          <mxGeometry x="280" y="450" width="200" height="40" as="geometry" />
        </mxCell>
        <mxCell id="0jPFI7pGjnbCgKfN27kb-63" style="edgeStyle=orthogonalEdgeStyle;rounded=0;orthogonalLoop=1;jettySize=auto;html=1;exitX=1;exitY=0.5;exitDx=0;exitDy=0;entryX=0;entryY=0.5;entryDx=0;entryDy=0;fontSize=14;" parent="1" source="0jPFI7pGjnbCgKfN27kb-55" target="0jPFI7pGjnbCgKfN27kb-56" edge="1">
          <mxGeometry relative="1" as="geometry" />
        </mxCell>
        <mxCell id="0jPFI7pGjnbCgKfN27kb-55" value="next" style="rounded=0;whiteSpace=wrap;html=1;fontSize=14;" parent="1" vertex="1">
          <mxGeometry x="280" y="490" width="200" height="40" as="geometry" />
        </mxCell>
        <mxCell id="0jPFI7pGjnbCgKfN27kb-56" value="Hook" style="rounded=0;whiteSpace=wrap;html=1;verticalAlign=middle;fontSize=16;fontStyle=1" parent="1" vertex="1">
          <mxGeometry x="560" y="280" width="200" height="50" as="geometry" />
        </mxCell>
        <mxCell id="0jPFI7pGjnbCgKfN27kb-57" value="memoizedState" style="rounded=0;whiteSpace=wrap;html=1;fontSize=14;" parent="1" vertex="1">
          <mxGeometry x="560" y="330" width="200" height="40" as="geometry" />
        </mxCell>
        <mxCell id="0jPFI7pGjnbCgKfN27kb-58" value="baseState" style="rounded=0;whiteSpace=wrap;html=1;fontSize=14;" parent="1" vertex="1">
          <mxGeometry x="560" y="370" width="200" height="40" as="geometry" />
        </mxCell>
        <mxCell id="0jPFI7pGjnbCgKfN27kb-59" value="baseQueue" style="rounded=0;whiteSpace=wrap;html=1;fontSize=14;" parent="1" vertex="1">
          <mxGeometry x="560" y="410" width="200" height="40" as="geometry" />
        </mxCell>
        <mxCell id="0jPFI7pGjnbCgKfN27kb-60" value="queue" style="rounded=0;whiteSpace=wrap;html=1;fontSize=14;" parent="1" vertex="1">
          <mxGeometry x="560" y="450" width="200" height="40" as="geometry" />
        </mxCell>
        <mxCell id="0jPFI7pGjnbCgKfN27kb-70" style="edgeStyle=orthogonalEdgeStyle;rounded=0;orthogonalLoop=1;jettySize=auto;html=1;exitX=1;exitY=0.5;exitDx=0;exitDy=0;entryX=0;entryY=0.5;entryDx=0;entryDy=0;fontSize=14;" parent="1" source="0jPFI7pGjnbCgKfN27kb-61" target="0jPFI7pGjnbCgKfN27kb-64" edge="1">
          <mxGeometry relative="1" as="geometry" />
        </mxCell>
        <mxCell id="0jPFI7pGjnbCgKfN27kb-61" value="next" style="rounded=0;whiteSpace=wrap;html=1;fontSize=14;" parent="1" vertex="1">
          <mxGeometry x="560" y="490" width="200" height="40" as="geometry" />
        </mxCell>
        <mxCell id="0jPFI7pGjnbCgKfN27kb-64" value="Hook" style="rounded=0;whiteSpace=wrap;html=1;verticalAlign=middle;fontSize=16;fontStyle=1" parent="1" vertex="1">
          <mxGeometry x="840" y="280" width="200" height="50" as="geometry" />
        </mxCell>
        <mxCell id="0jPFI7pGjnbCgKfN27kb-65" value="......" style="rounded=0;whiteSpace=wrap;html=1;fontSize=14;" parent="1" vertex="1">
          <mxGeometry x="840" y="330" width="200" height="40" as="geometry" />
        </mxCell>
        <mxCell id="YZ4KDMcBU5Q-6lFASi-J-4" value="queue" style="rounded=0;whiteSpace=wrap;html=1;verticalAlign=middle;fontSize=16;fontStyle=1" parent="1" vertex="1">
          <mxGeometry x="388" y="680" width="200" height="60" as="geometry" />
        </mxCell>
        <mxCell id="YZ4KDMcBU5Q-6lFASi-J-5" style="edgeStyle=orthogonalEdgeStyle;rounded=0;orthogonalLoop=1;jettySize=auto;html=1;exitX=1;exitY=0.5;exitDx=0;exitDy=0;entryX=0;entryY=0.5;entryDx=0;entryDy=0;fontSize=14;" parent="1" source="YZ4KDMcBU5Q-6lFASi-J-6" target="YZ4KDMcBU5Q-6lFASi-J-7" edge="1">
          <mxGeometry relative="1" as="geometry" />
        </mxCell>
        <mxCell id="YZ4KDMcBU5Q-6lFASi-J-6" value="pending" style="rounded=0;whiteSpace=wrap;html=1;fontSize=14;" parent="1" vertex="1">
          <mxGeometry x="388" y="740" width="200" height="40" as="geometry" />
        </mxCell>
        <mxCell id="YZ4KDMcBU5Q-6lFASi-J-7" value="update" style="rounded=0;whiteSpace=wrap;html=1;verticalAlign=middle;fontSize=16;fontStyle=1" parent="1" vertex="1">
          <mxGeometry x="668" y="730" width="200" height="60" as="geometry" />
        </mxCell>
        <mxCell id="YZ4KDMcBU5Q-6lFASi-J-8" value="action" style="rounded=0;whiteSpace=wrap;html=1;fontSize=14;" parent="1" vertex="1">
          <mxGeometry x="668" y="830" width="200" height="40" as="geometry" />
        </mxCell>
        <mxCell id="YZ4KDMcBU5Q-6lFASi-J-9" value="hasEagerState" style="rounded=0;whiteSpace=wrap;html=1;fontSize=14;" parent="1" vertex="1">
          <mxGeometry x="668" y="870" width="200" height="40" as="geometry" />
        </mxCell>
        <mxCell id="YZ4KDMcBU5Q-6lFASi-J-10" value="eagerState" style="rounded=0;whiteSpace=wrap;html=1;fontSize=14;" parent="1" vertex="1">
          <mxGeometry x="668" y="910" width="200" height="40" as="geometry" />
        </mxCell>
        <mxCell id="OQ-GW6IakOBJYMvynz-n-18" style="edgeStyle=orthogonalEdgeStyle;rounded=0;orthogonalLoop=1;jettySize=auto;html=1;exitX=1;exitY=0.5;exitDx=0;exitDy=0;entryX=0;entryY=0.5;entryDx=0;entryDy=0;" edge="1" parent="1" source="YZ4KDMcBU5Q-6lFASi-J-11" target="OQ-GW6IakOBJYMvynz-n-2">
          <mxGeometry relative="1" as="geometry" />
        </mxCell>
        <mxCell id="YZ4KDMcBU5Q-6lFASi-J-11" value="next" style="rounded=0;whiteSpace=wrap;html=1;fontSize=14;" parent="1" vertex="1">
          <mxGeometry x="668" y="950" width="200" height="40" as="geometry" />
        </mxCell>
        <mxCell id="YZ4KDMcBU5Q-6lFASi-J-25" value="dispatch" style="rounded=0;whiteSpace=wrap;html=1;fontSize=14;" parent="1" vertex="1">
          <mxGeometry x="388" y="780" width="200" height="40" as="geometry" />
        </mxCell>
        <mxCell id="YZ4KDMcBU5Q-6lFASi-J-26" value="lastRenderedReducer" style="rounded=0;whiteSpace=wrap;html=1;fontSize=14;" parent="1" vertex="1">
          <mxGeometry x="388" y="820" width="200" height="40" as="geometry" />
        </mxCell>
        <mxCell id="YZ4KDMcBU5Q-6lFASi-J-27" value="lastRenderedState" style="rounded=0;whiteSpace=wrap;html=1;fontSize=14;" parent="1" vertex="1">
          <mxGeometry x="388" y="860" width="200" height="40" as="geometry" />
        </mxCell>
        <mxCell id="OQ-GW6IakOBJYMvynz-n-1" value="lane" style="rounded=0;whiteSpace=wrap;html=1;fontSize=14;" vertex="1" parent="1">
          <mxGeometry x="668" y="790" width="200" height="40" as="geometry" />
        </mxCell>
        <mxCell id="OQ-GW6IakOBJYMvynz-n-2" value="update(first)" style="rounded=0;whiteSpace=wrap;html=1;verticalAlign=middle;fontSize=16;fontStyle=1" vertex="1" parent="1">
          <mxGeometry x="948" y="730" width="200" height="60" as="geometry" />
        </mxCell>
        <mxCell id="OQ-GW6IakOBJYMvynz-n-3" value="action" style="rounded=0;whiteSpace=wrap;html=1;fontSize=14;" vertex="1" parent="1">
          <mxGeometry x="948" y="830" width="200" height="40" as="geometry" />
        </mxCell>
        <mxCell id="OQ-GW6IakOBJYMvynz-n-4" value="hasEagerState" style="rounded=0;whiteSpace=wrap;html=1;fontSize=14;" vertex="1" parent="1">
          <mxGeometry x="948" y="870" width="200" height="40" as="geometry" />
        </mxCell>
        <mxCell id="OQ-GW6IakOBJYMvynz-n-5" value="eagerState" style="rounded=0;whiteSpace=wrap;html=1;fontSize=14;" vertex="1" parent="1">
          <mxGeometry x="948" y="910" width="200" height="40" as="geometry" />
        </mxCell>
        <mxCell id="OQ-GW6IakOBJYMvynz-n-22" style="edgeStyle=orthogonalEdgeStyle;rounded=0;orthogonalLoop=1;jettySize=auto;html=1;exitX=0.5;exitY=1;exitDx=0;exitDy=0;entryX=0.5;entryY=0;entryDx=0;entryDy=0;" edge="1" parent="1" source="OQ-GW6IakOBJYMvynz-n-6" target="OQ-GW6IakOBJYMvynz-n-15">
          <mxGeometry relative="1" as="geometry" />
        </mxCell>
        <mxCell id="OQ-GW6IakOBJYMvynz-n-6" value="next" style="rounded=0;whiteSpace=wrap;html=1;fontSize=14;" vertex="1" parent="1">
          <mxGeometry x="948" y="950" width="200" height="40" as="geometry" />
        </mxCell>
        <mxCell id="OQ-GW6IakOBJYMvynz-n-7" value="lane" style="rounded=0;whiteSpace=wrap;html=1;fontSize=14;" vertex="1" parent="1">
          <mxGeometry x="948" y="790" width="200" height="40" as="geometry" />
        </mxCell>
        <mxCell id="OQ-GW6IakOBJYMvynz-n-21" style="edgeStyle=orthogonalEdgeStyle;rounded=0;orthogonalLoop=1;jettySize=auto;html=1;exitX=0.5;exitY=0;exitDx=0;exitDy=0;entryX=0.5;entryY=1;entryDx=0;entryDy=0;" edge="1" parent="1" source="OQ-GW6IakOBJYMvynz-n-8" target="YZ4KDMcBU5Q-6lFASi-J-11">
          <mxGeometry relative="1" as="geometry" />
        </mxCell>
        <mxCell id="OQ-GW6IakOBJYMvynz-n-8" value="update" style="rounded=0;whiteSpace=wrap;html=1;verticalAlign=middle;fontSize=16;fontStyle=1" vertex="1" parent="1">
          <mxGeometry x="668" y="1080" width="200" height="60" as="geometry" />
        </mxCell>
        <mxCell id="OQ-GW6IakOBJYMvynz-n-12" value="next" style="rounded=0;whiteSpace=wrap;html=1;fontSize=14;" vertex="1" parent="1">
          <mxGeometry x="668" y="1140" width="200" height="40" as="geometry" />
        </mxCell>
        <mxCell id="OQ-GW6IakOBJYMvynz-n-14" value="......" style="rounded=0;whiteSpace=wrap;html=1;fontSize=14;" vertex="1" parent="1">
          <mxGeometry x="668" y="1180" width="200" height="40" as="geometry" />
        </mxCell>
        <mxCell id="OQ-GW6IakOBJYMvynz-n-20" style="edgeStyle=orthogonalEdgeStyle;rounded=0;orthogonalLoop=1;jettySize=auto;html=1;exitX=0;exitY=0.5;exitDx=0;exitDy=0;entryX=1;entryY=0.5;entryDx=0;entryDy=0;" edge="1" parent="1" source="OQ-GW6IakOBJYMvynz-n-15" target="OQ-GW6IakOBJYMvynz-n-8">
          <mxGeometry relative="1" as="geometry" />
        </mxCell>
        <mxCell id="OQ-GW6IakOBJYMvynz-n-15" value="update" style="rounded=0;whiteSpace=wrap;html=1;verticalAlign=middle;fontSize=16;fontStyle=1" vertex="1" parent="1">
          <mxGeometry x="948" y="1080" width="200" height="60" as="geometry" />
        </mxCell>
        <mxCell id="OQ-GW6IakOBJYMvynz-n-16" value="next" style="rounded=0;whiteSpace=wrap;html=1;fontSize=14;" vertex="1" parent="1">
          <mxGeometry x="948" y="1140" width="200" height="40" as="geometry" />
        </mxCell>
        <mxCell id="OQ-GW6IakOBJYMvynz-n-17" value="......" style="rounded=0;whiteSpace=wrap;html=1;fontSize=14;" vertex="1" parent="1">
          <mxGeometry x="948" y="1180" width="200" height="40" as="geometry" />
        </mxCell>
        <mxCell id="OQ-GW6IakOBJYMvynz-n-23" value="queue" style="rounded=0;whiteSpace=wrap;html=1;verticalAlign=middle;fontSize=16;fontStyle=1" vertex="1" parent="1">
          <mxGeometry x="40" y="1330" width="200" height="60" as="geometry" />
        </mxCell>
        <mxCell id="OQ-GW6IakOBJYMvynz-n-24" style="edgeStyle=orthogonalEdgeStyle;rounded=0;orthogonalLoop=1;jettySize=auto;html=1;exitX=1;exitY=0.5;exitDx=0;exitDy=0;entryX=0;entryY=0.5;entryDx=0;entryDy=0;fontSize=14;" edge="1" parent="1" source="OQ-GW6IakOBJYMvynz-n-25" target="OQ-GW6IakOBJYMvynz-n-26">
          <mxGeometry relative="1" as="geometry" />
        </mxCell>
        <mxCell id="OQ-GW6IakOBJYMvynz-n-25" value="pending" style="rounded=0;whiteSpace=wrap;html=1;fontSize=14;" vertex="1" parent="1">
          <mxGeometry x="40" y="1390" width="200" height="40" as="geometry" />
        </mxCell>
        <mxCell id="OQ-GW6IakOBJYMvynz-n-26" value="update" style="rounded=0;whiteSpace=wrap;html=1;verticalAlign=middle;fontSize=16;fontStyle=1" vertex="1" parent="1">
          <mxGeometry x="320" y="1380" width="200" height="60" as="geometry" />
        </mxCell>
        <mxCell id="OQ-GW6IakOBJYMvynz-n-27" value="action: c =&amp;gt; c + 2" style="rounded=0;whiteSpace=wrap;html=1;fontSize=14;" vertex="1" parent="1">
          <mxGeometry x="320" y="1480" width="200" height="40" as="geometry" />
        </mxCell>
        <mxCell id="OQ-GW6IakOBJYMvynz-n-28" value="hasEagerState: false" style="rounded=0;whiteSpace=wrap;html=1;fontSize=14;" vertex="1" parent="1">
          <mxGeometry x="320" y="1520" width="200" height="40" as="geometry" />
        </mxCell>
        <mxCell id="OQ-GW6IakOBJYMvynz-n-29" value="eagerState: null" style="rounded=0;whiteSpace=wrap;html=1;fontSize=14;" vertex="1" parent="1">
          <mxGeometry x="320" y="1560" width="200" height="40" as="geometry" />
        </mxCell>
        <mxCell id="OQ-GW6IakOBJYMvynz-n-30" style="edgeStyle=orthogonalEdgeStyle;rounded=0;orthogonalLoop=1;jettySize=auto;html=1;exitX=1;exitY=0.5;exitDx=0;exitDy=0;entryX=0;entryY=0.5;entryDx=0;entryDy=0;" edge="1" parent="1" source="OQ-GW6IakOBJYMvynz-n-31" target="OQ-GW6IakOBJYMvynz-n-36">
          <mxGeometry relative="1" as="geometry" />
        </mxCell>
        <mxCell id="OQ-GW6IakOBJYMvynz-n-31" value="next" style="rounded=0;whiteSpace=wrap;html=1;fontSize=14;" vertex="1" parent="1">
          <mxGeometry x="320" y="1600" width="200" height="40" as="geometry" />
        </mxCell>
        <mxCell id="OQ-GW6IakOBJYMvynz-n-32" value="dispatch" style="rounded=0;whiteSpace=wrap;html=1;fontSize=14;" vertex="1" parent="1">
          <mxGeometry x="40" y="1430" width="200" height="40" as="geometry" />
        </mxCell>
        <mxCell id="OQ-GW6IakOBJYMvynz-n-33" value="lastRenderedReducer" style="rounded=0;whiteSpace=wrap;html=1;fontSize=14;" vertex="1" parent="1">
          <mxGeometry x="40" y="1470" width="200" height="40" as="geometry" />
        </mxCell>
        <mxCell id="OQ-GW6IakOBJYMvynz-n-34" value="lastRenderedState" style="rounded=0;whiteSpace=wrap;html=1;fontSize=14;" vertex="1" parent="1">
          <mxGeometry x="40" y="1510" width="200" height="40" as="geometry" />
        </mxCell>
        <mxCell id="OQ-GW6IakOBJYMvynz-n-35" value="lane: 1" style="rounded=0;whiteSpace=wrap;html=1;fontSize=14;" vertex="1" parent="1">
          <mxGeometry x="320" y="1440" width="200" height="40" as="geometry" />
        </mxCell>
        <mxCell id="OQ-GW6IakOBJYMvynz-n-36" value="update(first)" style="rounded=0;whiteSpace=wrap;html=1;verticalAlign=middle;fontSize=16;fontStyle=1" vertex="1" parent="1">
          <mxGeometry x="600" y="1380" width="200" height="60" as="geometry" />
        </mxCell>
        <mxCell id="OQ-GW6IakOBJYMvynz-n-37" value="action: c =&amp;gt; c + 1" style="rounded=0;whiteSpace=wrap;html=1;fontSize=14;" vertex="1" parent="1">
          <mxGeometry x="600" y="1480" width="200" height="40" as="geometry" />
        </mxCell>
        <mxCell id="OQ-GW6IakOBJYMvynz-n-38" value="hasEagerState: true" style="rounded=0;whiteSpace=wrap;html=1;fontSize=14;" vertex="1" parent="1">
          <mxGeometry x="600" y="1520" width="200" height="40" as="geometry" />
        </mxCell>
        <mxCell id="OQ-GW6IakOBJYMvynz-n-39" value="eagerState: 1" style="rounded=0;whiteSpace=wrap;html=1;fontSize=14;" vertex="1" parent="1">
          <mxGeometry x="600" y="1560" width="200" height="40" as="geometry" />
        </mxCell>
        <mxCell id="OQ-GW6IakOBJYMvynz-n-51" style="edgeStyle=orthogonalEdgeStyle;rounded=0;orthogonalLoop=1;jettySize=auto;html=1;exitX=1;exitY=0.5;exitDx=0;exitDy=0;entryX=0.5;entryY=0;entryDx=0;entryDy=0;" edge="1" parent="1" source="OQ-GW6IakOBJYMvynz-n-41" target="OQ-GW6IakOBJYMvynz-n-26">
          <mxGeometry relative="1" as="geometry" />
        </mxCell>
        <mxCell id="OQ-GW6IakOBJYMvynz-n-41" value="next" style="rounded=0;whiteSpace=wrap;html=1;fontSize=14;" vertex="1" parent="1">
          <mxGeometry x="600" y="1600" width="200" height="40" as="geometry" />
        </mxCell>
        <mxCell id="OQ-GW6IakOBJYMvynz-n-42" value="lane: 0" style="rounded=0;whiteSpace=wrap;html=1;fontSize=14;" vertex="1" parent="1">
          <mxGeometry x="600" y="1440" width="200" height="40" as="geometry" />
        </mxCell>
        <mxCell id="OQ-GW6IakOBJYMvynz-n-52" value="queue" style="rounded=0;whiteSpace=wrap;html=1;verticalAlign=middle;fontSize=16;fontStyle=1" vertex="1" parent="1">
          <mxGeometry x="40" y="1680" width="200" height="60" as="geometry" />
        </mxCell>
        <mxCell id="OQ-GW6IakOBJYMvynz-n-53" style="edgeStyle=orthogonalEdgeStyle;rounded=0;orthogonalLoop=1;jettySize=auto;html=1;exitX=1;exitY=0.5;exitDx=0;exitDy=0;entryX=0;entryY=0.5;entryDx=0;entryDy=0;fontSize=14;" edge="1" parent="1" source="OQ-GW6IakOBJYMvynz-n-54" target="OQ-GW6IakOBJYMvynz-n-55">
          <mxGeometry relative="1" as="geometry" />
        </mxCell>
        <mxCell id="OQ-GW6IakOBJYMvynz-n-54" value="pending" style="rounded=0;whiteSpace=wrap;html=1;fontSize=14;" vertex="1" parent="1">
          <mxGeometry x="40" y="1740" width="200" height="40" as="geometry" />
        </mxCell>
        <mxCell id="OQ-GW6IakOBJYMvynz-n-55" value="update" style="rounded=0;whiteSpace=wrap;html=1;verticalAlign=middle;fontSize=16;fontStyle=1" vertex="1" parent="1">
          <mxGeometry x="320" y="1730" width="200" height="60" as="geometry" />
        </mxCell>
        <mxCell id="OQ-GW6IakOBJYMvynz-n-56" value="action: c =&amp;gt; c + 2" style="rounded=0;whiteSpace=wrap;html=1;fontSize=14;" vertex="1" parent="1">
          <mxGeometry x="320" y="1830" width="200" height="40" as="geometry" />
        </mxCell>
        <mxCell id="OQ-GW6IakOBJYMvynz-n-57" value="hasEagerState: false" style="rounded=0;whiteSpace=wrap;html=1;fontSize=14;" vertex="1" parent="1">
          <mxGeometry x="320" y="1870" width="200" height="40" as="geometry" />
        </mxCell>
        <mxCell id="OQ-GW6IakOBJYMvynz-n-58" value="eagerState: null" style="rounded=0;whiteSpace=wrap;html=1;fontSize=14;" vertex="1" parent="1">
          <mxGeometry x="320" y="1910" width="200" height="40" as="geometry" />
        </mxCell>
        <mxCell id="OQ-GW6IakOBJYMvynz-n-59" style="edgeStyle=orthogonalEdgeStyle;rounded=0;orthogonalLoop=1;jettySize=auto;html=1;exitX=1;exitY=0.5;exitDx=0;exitDy=0;entryX=0;entryY=0.5;entryDx=0;entryDy=0;" edge="1" parent="1" source="OQ-GW6IakOBJYMvynz-n-60" target="OQ-GW6IakOBJYMvynz-n-65">
          <mxGeometry relative="1" as="geometry" />
        </mxCell>
        <mxCell id="OQ-GW6IakOBJYMvynz-n-60" value="next" style="rounded=0;whiteSpace=wrap;html=1;fontSize=14;" vertex="1" parent="1">
          <mxGeometry x="320" y="1950" width="200" height="40" as="geometry" />
        </mxCell>
        <mxCell id="OQ-GW6IakOBJYMvynz-n-61" value="dispatch" style="rounded=0;whiteSpace=wrap;html=1;fontSize=14;" vertex="1" parent="1">
          <mxGeometry x="40" y="1780" width="200" height="40" as="geometry" />
        </mxCell>
        <mxCell id="OQ-GW6IakOBJYMvynz-n-62" value="lastRenderedReducer" style="rounded=0;whiteSpace=wrap;html=1;fontSize=14;" vertex="1" parent="1">
          <mxGeometry x="40" y="1820" width="200" height="40" as="geometry" />
        </mxCell>
        <mxCell id="OQ-GW6IakOBJYMvynz-n-63" value="lastRenderedState" style="rounded=0;whiteSpace=wrap;html=1;fontSize=14;" vertex="1" parent="1">
          <mxGeometry x="40" y="1860" width="200" height="40" as="geometry" />
        </mxCell>
        <mxCell id="OQ-GW6IakOBJYMvynz-n-64" value="lane: 1" style="rounded=0;whiteSpace=wrap;html=1;fontSize=14;" vertex="1" parent="1">
          <mxGeometry x="320" y="1790" width="200" height="40" as="geometry" />
        </mxCell>
        <mxCell id="OQ-GW6IakOBJYMvynz-n-65" value="update(first)" style="rounded=0;whiteSpace=wrap;html=1;verticalAlign=middle;fontSize=16;fontStyle=1" vertex="1" parent="1">
          <mxGeometry x="600" y="1730" width="200" height="60" as="geometry" />
        </mxCell>
        <mxCell id="OQ-GW6IakOBJYMvynz-n-66" value="action: c =&amp;gt; c + 1" style="rounded=0;whiteSpace=wrap;html=1;fontSize=14;" vertex="1" parent="1">
          <mxGeometry x="600" y="1830" width="200" height="40" as="geometry" />
        </mxCell>
        <mxCell id="OQ-GW6IakOBJYMvynz-n-67" value="hasEagerState: false" style="rounded=0;whiteSpace=wrap;html=1;fontSize=14;" vertex="1" parent="1">
          <mxGeometry x="600" y="1870" width="200" height="40" as="geometry" />
        </mxCell>
        <mxCell id="OQ-GW6IakOBJYMvynz-n-68" value="eagerState: null" style="rounded=0;whiteSpace=wrap;html=1;fontSize=14;" vertex="1" parent="1">
          <mxGeometry x="600" y="1910" width="200" height="40" as="geometry" />
        </mxCell>
        <mxCell id="OQ-GW6IakOBJYMvynz-n-69" style="edgeStyle=orthogonalEdgeStyle;rounded=0;orthogonalLoop=1;jettySize=auto;html=1;exitX=1;exitY=0.5;exitDx=0;exitDy=0;entryX=0.5;entryY=0;entryDx=0;entryDy=0;" edge="1" parent="1" source="OQ-GW6IakOBJYMvynz-n-70" target="OQ-GW6IakOBJYMvynz-n-55">
          <mxGeometry relative="1" as="geometry" />
        </mxCell>
        <mxCell id="OQ-GW6IakOBJYMvynz-n-70" value="next" style="rounded=0;whiteSpace=wrap;html=1;fontSize=14;" vertex="1" parent="1">
          <mxGeometry x="600" y="1950" width="200" height="40" as="geometry" />
        </mxCell>
        <mxCell id="OQ-GW6IakOBJYMvynz-n-71" value="lane: 1" style="rounded=0;whiteSpace=wrap;html=1;fontSize=14;" vertex="1" parent="1">
          <mxGeometry x="600" y="1790" width="200" height="40" as="geometry" />
        </mxCell>
        <mxCell id="OQ-GW6IakOBJYMvynz-n-72" value="Hook" style="rounded=0;whiteSpace=wrap;html=1;verticalAlign=middle;fontSize=16;fontStyle=1" vertex="1" parent="1">
          <mxGeometry x="108" y="620" width="200" height="60" as="geometry" />
        </mxCell>
        <mxCell id="OQ-GW6IakOBJYMvynz-n-73" value="memoizedState" style="rounded=0;whiteSpace=wrap;html=1;fontSize=14;" vertex="1" parent="1">
          <mxGeometry x="108" y="680" width="200" height="40" as="geometry" />
        </mxCell>
        <mxCell id="OQ-GW6IakOBJYMvynz-n-74" value="baseState" style="rounded=0;whiteSpace=wrap;html=1;fontSize=14;" vertex="1" parent="1">
          <mxGeometry x="108" y="720" width="200" height="40" as="geometry" />
        </mxCell>
        <mxCell id="OQ-GW6IakOBJYMvynz-n-75" value="baseQueue" style="rounded=0;whiteSpace=wrap;html=1;fontSize=14;" vertex="1" parent="1">
          <mxGeometry x="108" y="760" width="200" height="40" as="geometry" />
        </mxCell>
        <mxCell id="OQ-GW6IakOBJYMvynz-n-78" style="edgeStyle=orthogonalEdgeStyle;rounded=0;orthogonalLoop=1;jettySize=auto;html=1;exitX=1;exitY=0.5;exitDx=0;exitDy=0;entryX=0;entryY=0.5;entryDx=0;entryDy=0;" edge="1" parent="1" source="OQ-GW6IakOBJYMvynz-n-76" target="YZ4KDMcBU5Q-6lFASi-J-4">
          <mxGeometry relative="1" as="geometry" />
        </mxCell>
        <mxCell id="OQ-GW6IakOBJYMvynz-n-76" value="queue" style="rounded=0;whiteSpace=wrap;html=1;fontSize=14;" vertex="1" parent="1">
          <mxGeometry x="108" y="800" width="200" height="40" as="geometry" />
        </mxCell>
        <mxCell id="OQ-GW6IakOBJYMvynz-n-77" value="next" style="rounded=0;whiteSpace=wrap;html=1;fontSize=14;" vertex="1" parent="1">
          <mxGeometry x="108" y="840" width="200" height="40" as="geometry" />
        </mxCell>
      </root>
    </mxGraphModel>
  </diagram>
</mxfile>
